<?xml version="1.0" encoding="UTF-8" standalone="no" ?>
<svg xmlns="http://www.w3.org/2000/svg" xmlns:xlink="http://www.w3.org/1999/xlink" version="1.1" width="1000" height="1000" viewBox="0 0 1000 200" xml:space="preserve">
<g transform="matrix(0 0 0 0 0 0)" id="9c8cbbb0-2b64-479c-af32-160c197082a1"  >
</g>
<g transform="matrix(1 0 0 1 500 100)" id="617e7642-48cd-4cf9-a7f0-42a0f8402656"  >
<rect style="stroke: none; stroke-width: 1; stroke-dasharray: none; stroke-linecap: butt; stroke-dashoffset: 0; stroke-linejoin: miter; stroke-miterlimit: 4; fill: rgb(255,255,255); fill-rule: nonzero; opacity: 1; visibility: hidden;" vector-effect="non-scaling-stroke"  x="-500" y="-100" rx="0" ry="0" width="1000" height="200" />
</g>
<g transform="matrix(0.89 0 0 0.89 69.17 123.42)"  >
<path style="stroke: none; stroke-width: 1; stroke-dasharray: none; stroke-linecap: butt; stroke-dashoffset: 0; stroke-linejoin: miter; stroke-miterlimit: 4; fill: rgb(112,207,144); fill-rule: nonzero; opacity: 1;" vector-effect="non-scaling-stroke"  transform=" translate(-72.25, -168.75)" d="M 144.5 241 C 144.5 161.13 79.87 96.5 0 96.5 L 51.358 189.642 z" stroke-linecap="round" />
</g>
<g transform="matrix(0.89 0 0 0.89 69.17 123.42)"  >
<path style="stroke: none; stroke-width: 1; stroke-dasharray: none; stroke-linecap: butt; stroke-dashoffset: 0; stroke-linejoin: miter; stroke-miterlimit: 4; fill: rgb(68,184,139); fill-rule: nonzero; opacity: 1;" vector-effect="non-scaling-stroke"  transform=" translate(-72.25, -168.75)" d="M 144.5 241 L 0 96.5 C 0 176.37 64.63 241 144.5 241 z" stroke-linecap="round" />
</g>
<g transform="matrix(1.06 0 0 1.06 723.52 100)"  >
<path style="stroke: none; stroke-width: 1; stroke-dasharray: none; stroke-linecap: butt; stroke-dashoffset: 0; stroke-linejoin: miter; stroke-miterlimit: 4; fill: rgb(150,225,146); fill-rule: nonzero; opacity: 1;" vector-effect="non-scaling-stroke"  transform=" translate(-256, -353.5)" d="M 45 301 C 53.271 301 60 307.729 60 316 L 90 316 C 90 291.187 69.813 271 45 271 C 20.186999999999998 271 0 291.187 0 316 C 0 330.092 6.737 343.557 18.01 352.01 L 52.763999999999996 378.11699999999996 L 53.376 378.55299999999994 C 57.51697865079628 381.3418630261531 59.999899089776555 386.00745944885654 60 391 C 60 399.271 53.271 406 45 406 C 36.729 406 30 399.271 30 391 L 0 391 C 0 415.813 20.187 436 45 436 C 69.813 436 90 415.813 90 391 C 90.00639250423477 376.1868952472247 82.71744391193769 362.3207626957967 70.512 353.927 L 36.018 328.01500000000004 C 32.193 325.148 30 320.768 30 316 C 30 307.729 36.729 301 45 301 z M 146.25 271 C 123.505 271 105 289.505 105 312.25 L 105 436 L 135 436 L 135 398.5 L 157.5 398.5 L 157.5 436 L 187.5 436 L 187.5 312.25 C 187.5 289.505 168.995 271 146.25 271 z M 135 368.5 L 135 312.25 C 135 306.047 140.047 301 146.25 301 C 152.453 301 157.5 306.047 157.5 312.25 L 157.5 368.5 z M 482 357.25 C 482 363.453 476.953 368.5 470.75 368.5 C 464.547 368.5 459.5 363.453 459.5 357.25 L 459.5 271 L 429.5 271 L 429.5 357.25 C 429.5 374.704 440.402 389.65 455.75 395.664 L 455.75 436 L 485.75 436 L 485.75 395.664 C 501.098 389.65 512 374.704 512 357.25 L 512 271 L 482 271 z M 202.5 436 L 232.5 436 L 232.5 368.5 L 262.5 368.5 L 262.5 338.5 L 232.5 338.5 L 232.5 301 L 262.5 301 L 262.5 271 L 202.5 271 z" stroke-linecap="round" />
</g>
<g transform="matrix(1.06 0 0 1.06 235.42 100)"  >
<path style="stroke: none; stroke-width: 1; stroke-dasharray: none; stroke-linecap: butt; stroke-dashoffset: 0; stroke-linejoin: miter; stroke-miterlimit: 4; fill: rgb(252,159,99); fill-rule: nonzero; opacity: 1;" vector-effect="non-scaling-stroke"  transform=" translate(-335.75, -158.5)" d="M 219.5 173.5 L 219.5 143.5 L 189.5 143.5 L 189.5 106 L 219.5 106 L 219.5 76 L 159.5 76 L 159.5 241 L 189.5 241 L 189.5 173.5 z M 317 199.75 L 317 117.25 C 317 94.505 298.495 76 275.75 76 C 253.005 76 234.5 94.505 234.5 117.25 L 234.5 199.75 C 234.5 222.495 253.005 241 275.75 241 C 298.495 241 317 222.495 317 199.75 z M 287 199.75 C 287 205.953 281.953 211 275.75 211 C 269.547 211 264.5 205.953 264.5 199.75 L 264.5 117.25 C 264.5 111.047 269.547 106 275.75 106 C 281.953 106 287 111.047 287 117.25 z M 373.25 76 C 350.505 76 332 94.505 332 117.25 L 332 199.75 C 332 222.495 350.505 241 373.25 241 C 395.995 241 414.5 222.495 414.5 199.75 L 414.5 117.25 C 414.5 94.505 395.995 76 373.25 76 z M 384.5 199.75 C 384.5 205.953 379.453 211 373.25 211 C 367.047 211 362 205.953 362 199.75 L 362 117.25 C 362 111.047 367.047 106 373.25 106 C 379.453 106 384.5 111.047 384.5 117.25 z M 470.75 76 L 429.5 76 L 429.5 241 L 470.75 241 C 493.495 241 512 222.495 512 199.75 L 512 117.25 C 512 94.505 493.495 76 470.75 76 z M 482 199.75 C 482 205.953 476.953 211 470.75 211 L 459.5 211 L 459.5 106 L 470.75 106 C 476.953 106 482 111.047 482 117.25 z" stroke-linecap="round" />
</g>
<g transform="matrix(1.06 0 0 1.06 812.61 100)"  >
<path style="stroke: none; stroke-width: 1; stroke-dasharray: none; stroke-linecap: butt; stroke-dashoffset: 0; stroke-linejoin: miter; stroke-miterlimit: 4; fill: rgb(150,225,146); fill-rule: nonzero; opacity: 1;" vector-effect="non-scaling-stroke"  transform=" translate(-346, -353.5)" d="M 277.5 436 L 337.5 436 L 337.5 406 L 307.5 406 L 307.5 368.5 L 337.5 368.5 L 337.5 338.5 L 307.5 338.5 L 307.5 301 L 337.5 301 L 337.5 271 L 277.5 271 z M 352.5 301 L 368.5 301 L 368.5 436 L 398.5 436 L 398.5 301 L 414.5 301 L 414.5 271 L 352.5 271 z" stroke-linecap="round" />
</g>
</svg>